<?xml version="1.0" encoding="utf-8"?>
<svg viewBox="0 0 500 500" xmlns="http://www.w3.org/2000/svg" xmlns:bx="https://boxy-svg.com">
  <g transform="matrix(1, 0, 0, 1, 19.185511, 15.10625)"/>
  <g transform="matrix(1, 0, 0, 1, 19.185511, 15.10625)"/>
  <g transform="matrix(1, 0, 0, 1, 19.185511, 15.10625)"/>
  <g transform="matrix(1, 0, 0, 1, 19.185511, 15.10625)"/>
  <g transform="matrix(1, 0, 0, 1, 19.185511, 15.10625)"/>
  <g transform="matrix(1, 0, 0, 1, 19.185511, 15.10625)"/>
  <g transform="matrix(1, 0, 0, 1, 19.185511, 15.10625)"/>
  <g transform="matrix(1, 0, 0, 1, 19.185511, 15.10625)"/>
  <g transform="matrix(1, 0, 0, 1, 19.185511, 15.10625)"/>
  <g transform="matrix(1, 0, 0, 1, 19.185511, 15.10625)"/>
  <g transform="matrix(1, 0, 0, 1, 19.185511, 15.10625)"/>
  <g transform="matrix(1, 0, 0, 1, 19.185511, 15.10625)"/>
  <g transform="matrix(1, 0, 0, 1, 19.185511, 15.10625)"/>
  <g transform="matrix(1, 0, 0, 1, 19.185511, 15.10625)"/>
  <g transform="matrix(1, 0, 0, 1, 19.185511, 15.10625)"/>
  <path d="M 25.641 118.007 m -0.583 0 a 0.583 2.04 0 1 0 1.166 0 a 0.583 2.04 0 1 0 -1.166 0 Z M 25.641 118.007 m -0.35 0 a 0.35 1.224 0 0 1 0.7 0 a 0.35 1.224 0 0 1 -0.7 0 Z" style="fill: rgb(216, 216, 216);" bx:shape="ring 25.641 118.007 0.35 1.224 0.583 2.04 1@170aa19b"/>
  <g>
    <g transform="matrix(1, 0, 0, 1, 19.185511, 15.10625)">
      <g>
        <g>
          <path d="M451.436,178.824c-2.976-14.432-7.36-28.592-13.056-42.048c-5.616-13.264-12.56-26.064-20.656-38.064 c-8.032-11.872-17.232-23.008-27.344-33.12c-10.128-10.128-21.264-19.328-33.136-27.344 c-11.952-8.08-24.752-15.024-38.064-20.672c-13.536-5.712-27.664-10.096-42.064-13.04c-29.504-6.048-60.736-6.048-90.272,0 c-14.368,2.944-28.512,7.328-42.064,13.056c-13.296,5.616-26.096,12.56-38.048,20.64C94.86,46.248,83.708,55.448,73.596,65.576 C63.484,75.688,54.284,86.84,46.236,98.728c-8.08,11.984-15.024,24.784-20.64,38.048C19.9,150.248,15.5,164.392,12.54,178.84 c-3.024,14.752-4.56,29.936-4.56,45.12c0,15.232,1.552,30.016,4.592,43.984c3.008,13.68,7.488,26.784,13.328,38.912 c5.712,11.872,12.848,23.104,21.184,33.376c8.128,9.984,17.52,19.2,27.92,27.376c5.808,4.592,12.016,8.896,18.512,12.896 l-35.296,59.28c-2.944,4.944-3.008,11.088-0.16,16.096c2.848,5.008,8.176,8.08,13.92,8.08h320c0.112,0,0.24,0,0.32,0 c8.848,0,16-7.168,16-16c0-4.048-1.504-7.76-4-10.592l-33.856-56.88c6.496-4,12.704-8.304,18.512-12.896 c10.4-8.176,19.792-17.392,27.936-27.392c8.336-10.256,15.456-21.488,21.168-33.36c5.84-12.128,10.336-25.232,13.328-38.944 c3.04-13.92,4.592-28.704,4.592-43.936C455.98,208.776,454.444,193.592,451.436,178.824z M100.124,431.96l29.312-49.216 c2.272-3.808,2.864-8.384,1.616-12.656c-1.232-4.256-4.176-7.808-8.128-9.808c-10.192-5.152-19.664-11.152-28.128-17.824 c-8.544-6.72-16.256-14.288-22.88-22.416c-6.768-8.336-12.544-17.424-17.168-27.056c-4.768-9.904-8.432-20.64-10.928-31.888 c-2.544-11.712-3.84-24.208-3.84-37.136c0-13.04,1.312-26.064,3.888-38.704c2.544-12.368,6.32-24.496,11.184-36.016 c4.816-11.36,10.768-22.336,17.68-32.608c6.896-10.192,14.8-19.76,23.472-28.432c8.688-8.688,18.256-16.576,28.416-23.456 c10.256-6.928,21.216-12.88,32.592-17.696c11.616-4.896,23.712-8.672,36.032-11.184c25.312-5.168,52.144-5.168,77.424,0 c6.432,1.312,12.8,3.008,19.072,4.992l-83.52,167.728c-2.064-0.272-4.112-0.624-6.24-0.624c-26.464,0-48,21.536-48,48 s21.536,48,48,48c11.184,0,21.36-4,29.52-10.448l125.76,58.704c-4.56,2.864-9.296,5.584-14.224,8.064 c-3.952,2-6.896,5.552-8.128,9.808c-1.248,4.256-0.656,8.832,1.616,12.656l29.312,49.216H100.124z M215.98,255.96 c0,8.816-7.168,16-16,16c-8.832,0-16-7.184-16-16c0-8.816,7.168-16,16-16C208.812,239.96,215.98,247.144,215.98,255.96z M420.14,261.08c-2.48,11.264-6.16,22-10.928,31.904c-4.624,9.632-10.4,18.736-17.152,27.04c-2.784,3.424-5.856,6.656-8.992,9.84 l-136.272-63.6c0.736-3.312,1.184-6.752,1.184-10.304c0-12.752-5.072-24.288-13.216-32.88l84.64-169.92 c6.848,3.52,13.568,7.296,19.92,11.584c10.176,6.88,19.728,14.768,28.416,23.456c8.672,8.672,16.576,18.256,23.456,28.416 c6.944,10.288,12.896,21.264,17.696,32.624c4.88,11.536,8.64,23.648,11.184,36c2.592,12.656,3.904,25.68,3.904,38.72 C423.98,236.888,422.684,249.384,420.14,261.08z" style=""/>
          <path d="M388.732,191.752c-1.056-5.2-2.384-10.32-3.936-15.36c-1.568-5.008-3.36-9.92-5.392-14.688 c-2.032-4.784-4.272-9.456-6.736-14c-2.128-3.888-7.024-5.312-10.848-3.216c-3.888,2.112-5.328,6.976-3.216,10.848 c2.224,4.08,4.24,8.272,6.064,12.592c1.824,4.304,3.44,8.704,4.848,13.184c1.392,4.512,2.592,9.104,3.536,13.824 c0.976,4.672,1.696,9.456,2.208,14.288c0.464,4.848,0.72,9.76,0.72,14.736c0,4.416,3.584,8,8,8c4.416,0,8-3.584,8-8 c0-5.52-0.288-10.976-0.832-16.336C390.62,202.248,389.788,196.936,388.732,191.752z" style=""/>
          <path d="M345.1,110.84c-3.12-3.12-8.192-3.12-11.312,0c-3.12,3.12-3.104,8.176,0.016,11.296c3.264,3.264,6.352,6.672,9.312,10.24 c1.584,1.904,3.856,2.896,6.16,2.896c1.792,0,3.616-0.608,5.104-1.84c3.392-2.816,3.872-7.856,1.04-11.264 C352.156,118.232,348.716,114.44,345.1,110.84z" style=""/>
        </g>
      </g>
    </g>
    <g>
      <path d="M 219.115 270.684 m -110.722 0 a 110.722 110.424 0 1 0 221.444 0 a 110.722 110.424 0 1 0 -221.444 0 Z M 219.115 270.684 m -66.435 0 a 66.435 66.256 0 0 1 132.87 0 a 66.435 66.256 0 0 1 -132.87 0 Z" style="" bx:shape="ring 219.115 270.684 66.435 66.256 110.722 110.424 1@7ae7301c"/>
    </g>
  </g>
</svg>